<svg xmlns="http://www.w3.org/2000/svg" viewBox="0 0 30 21.7">
  <path fill="#000000" d="M 18.601562 1.117188 C 17.402344 1.519531 16.609375 2.03125 15.710938 2.941406 C 15.085938 3.582031 14.773438 4.066406 14.109375 5.433594 C 13.65625 6.375 13.082031 7.429688 12.820312 7.796875 C 12.5625 8.148438 9.566406 11.277344 6.15625 14.746094 C 2.746094 18.21875 -0.0273438 21.058594 0 21.074219 C 0.597656 21.492188 0.9375 21.609375 1.757812 21.660156 C 2.601562 21.710938 2.785156 21.671875 3.539062 21.320312 C 3.996094 21.113281 4.605469 20.734375 4.878906 20.472656 L 5.386719 20.03125 L 10.007812 19.953125 C 14.058594 19.886719 14.789062 19.847656 15.933594 19.601562 C 18.238281 19.105469 20.085938 18.164062 21.699219 16.664062 C 23.914062 14.617188 24.980469 11.996094 24.980469 8.628906 L 24.980469 7.246094 L 25.945312 6.320312 C 26.660156 5.644531 27.234375 5.238281 28.105469 4.820312 C 28.757812 4.496094 29.238281 4.195312 29.171875 4.15625 C 29.109375 4.117188 28.613281 4.027344 28.09375 3.949219 C 26.386719 3.710938 25.867188 3.492188 24.941406 2.65625 C 23.40625 1.261719 22.339844 0.816406 20.488281 0.816406 C 19.761719 0.816406 19.199219 0.910156 18.601562 1.117188 Z M 22.625 3.765625 C 22.988281 4.222656 22.964844 4.664062 22.574219 5.054688 C 21.816406 5.8125 20.554688 5.042969 20.945312 4.066406 C 21.140625 3.59375 21.402344 3.4375 21.949219 3.425781 C 22.234375 3.425781 22.441406 3.53125 22.625 3.765625 Z M 22.625 3.765625 "/>
</svg>
