<?xml version="1.0" standalone="no"?>
<!DOCTYPE svg PUBLIC "-//W3C//DTD SVG 20010904//EN"
 "http://www.w3.org/TR/2001/REC-SVG-20010904/DTD/svg10.dtd">
<svg version="1.0" xmlns="http://www.w3.org/2000/svg"
 width="3200.000000pt" height="1312.000000pt" viewBox="0 0 3200.000000 1312.000000"
 preserveAspectRatio="xMidYMid meet">

<g transform="translate(0.000000,1312.000000) scale(0.100000,-0.100000)"
fill="#000000" stroke="none">
<path d="M13240 11139 c-25 -5 -90 -14 -145 -19 -89 -9 -181 -23 -240 -37 -11
-2 -54 -10 -96 -18 -42 -8 -96 -21 -120 -30 -24 -9 -81 -25 -126 -35 -45 -10
-103 -30 -130 -43 -26 -13 -65 -30 -87 -37 -21 -7 -54 -23 -74 -36 -19 -13
-41 -24 -49 -24 -8 0 -35 -11 -61 -25 -26 -14 -52 -25 -59 -25 -7 0 -35 -13
-61 -30 -27 -16 -54 -30 -60 -30 -6 0 -24 -11 -40 -25 -16 -13 -51 -34 -77
-45 -45 -19 -63 -32 -153 -106 -50 -41 -128 -94 -140 -94 -5 0 -16 -8 -23 -17
-8 -9 -31 -29 -52 -44 -21 -15 -63 -50 -93 -78 -29 -27 -66 -58 -81 -67 -16
-10 -65 -58 -111 -108 -45 -50 -118 -129 -162 -176 -43 -47 -87 -96 -98 -110
-54 -68 -219 -332 -297 -475 -22 -40 -45 -79 -51 -86 -17 -22 -144 -303 -144
-319 0 -8 -11 -34 -24 -57 -14 -23 -27 -53 -31 -65 -4 -13 -22 -54 -40 -93
-18 -38 -50 -106 -71 -150 -20 -43 -48 -94 -61 -113 -12 -19 -23 -43 -23 -53
0 -9 -11 -30 -24 -46 -13 -15 -33 -48 -45 -73 -23 -50 -58 -103 -90 -138 -11
-12 -27 -35 -35 -50 -8 -15 -62 -99 -120 -187 -106 -159 -227 -297 -486 -555
-42 -41 -140 -143 -218 -226 -77 -83 -174 -185 -214 -227 -40 -41 -91 -95
-113 -119 -22 -23 -58 -59 -80 -78 -22 -20 -52 -52 -67 -72 -15 -19 -107 -116
-205 -216 -175 -177 -359 -370 -405 -425 -13 -15 -117 -123 -233 -240 -115
-117 -255 -262 -310 -322 -55 -60 -111 -119 -123 -130 -47 -41 -100 -94 -247
-250 -82 -87 -188 -198 -235 -245 -157 -160 -320 -325 -355 -360 -19 -19 -104
-107 -187 -195 -84 -88 -200 -207 -258 -266 -58 -59 -166 -170 -240 -247 -369
-385 -523 -543 -720 -742 -118 -119 -253 -258 -300 -309 -117 -126 -429 -449
-464 -480 -16 -14 -39 -37 -50 -50 -51 -60 -154 -167 -321 -335 -178 -179
-265 -274 -265 -288 0 -33 203 -148 298 -168 28 -7 52 -15 52 -20 0 -4 24 -14
53 -20 28 -7 78 -21 109 -31 89 -28 402 -40 648 -24 108 7 135 13 189 37 24
11 65 26 90 33 95 27 177 59 208 82 17 12 34 23 38 23 3 0 60 32 127 70 67 39
127 70 134 70 6 0 20 11 30 25 10 14 23 25 29 25 13 0 79 44 150 100 122 96
142 111 194 148 29 20 67 46 85 57 17 10 38 27 47 37 26 28 97 50 179 54 100
4 281 5 1080 3 654 -2 677 -1 745 19 78 23 -22 20 1160 28 469 3 626 7 719 20
65 8 173 17 240 18 66 2 123 5 126 6 3 2 16 4 30 6 14 1 45 7 70 12 25 6 95
13 155 16 108 6 194 20 226 37 9 4 47 11 84 14 38 2 76 7 85 10 8 2 52 11 98
19 45 8 102 23 125 35 23 11 81 27 129 36 48 8 108 24 133 35 25 11 85 27 133
36 86 16 121 28 133 46 3 5 12 11 20 12 41 8 99 29 143 51 27 14 64 25 83 25
18 0 50 11 71 23 20 13 54 27 76 31 21 4 55 18 75 31 20 13 55 28 78 35 23 6
45 15 48 20 3 6 38 25 78 44 72 35 196 101 315 170 35 20 66 36 67 36 2 0 24
14 48 30 25 17 48 30 52 30 3 0 26 14 50 30 24 17 49 30 55 30 6 0 23 12 37
26 14 14 45 34 69 45 24 10 44 23 44 28 0 6 14 18 32 27 17 9 48 31 67 50 20
18 70 60 111 94 41 33 86 71 100 83 14 13 59 48 100 79 41 31 85 66 97 79 11
13 51 53 88 89 37 36 101 103 144 149 42 47 108 119 147 160 119 127 144 155
144 163 0 4 16 24 35 45 72 80 95 107 95 114 0 4 6 14 13 21 26 26 148 200
157 224 5 13 21 37 35 52 14 15 25 31 25 35 0 5 13 27 28 50 16 23 40 62 53
87 13 25 26 47 29 50 10 10 30 46 71 125 23 44 50 92 60 106 10 14 23 48 30
75 7 27 23 69 36 93 13 24 23 51 23 60 0 9 11 32 23 51 13 19 29 56 35 81 6
25 23 66 37 90 13 24 25 58 25 74 0 17 9 49 20 73 10 23 27 72 36 108 9 36 27
93 41 127 13 33 31 99 38 146 8 47 21 118 30 156 9 39 18 88 21 110 3 22 11
72 19 110 8 39 17 104 20 145 4 41 13 104 20 140 22 107 24 139 45 665 11 243
12 261 30 395 5 41 14 132 19 202 10 127 10 127 52 190 82 121 278 342 354
398 28 20 84 69 125 109 41 39 100 88 130 108 30 20 65 46 77 56 12 11 31 25
41 31 81 46 121 73 147 97 17 15 53 40 80 55 92 50 170 95 215 124 25 16 63
38 85 49 22 11 56 29 75 40 66 38 185 103 260 143 41 22 91 52 110 67 19 16
50 35 68 45 31 16 40 38 24 64 -8 11 -67 27 -276 72 -50 11 -97 22 -105 25 -9
4 -101 24 -206 46 -104 21 -269 60 -365 85 -96 25 -202 51 -235 59 -33 7 -88
22 -122 34 -34 12 -69 21 -76 21 -8 0 -30 11 -50 24 -19 13 -46 27 -58 31
-106 34 -300 188 -549 435 -78 77 -217 197 -282 242 -170 118 -211 144 -308
194 -58 30 -110 58 -116 63 -5 4 -37 18 -69 30 -33 13 -64 26 -70 31 -17 14
-192 79 -232 86 -21 4 -49 12 -63 19 -14 7 -50 16 -80 20 -30 3 -93 15 -140
25 -223 49 -553 73 -670 49z m913 -1269 c26 -13 47 -27 47 -31 0 -4 11 -10 24
-13 24 -6 100 -96 130 -154 29 -57 55 -135 61 -187 8 -60 -8 -120 -56 -216
-31 -62 -146 -189 -171 -189 -8 0 -37 -10 -64 -21 -80 -36 -168 -36 -282 0
-113 35 -173 80 -222 166 -35 61 -68 152 -76 208 -5 35 9 121 26 157 4 8 16
35 27 60 25 55 114 164 151 183 15 8 41 22 59 31 49 26 110 35 209 32 71 -2
101 -8 137 -26z"/>
<path d="M18312 9672 c-10 -7 -12 -624 -12 -3133 0 -2791 2 -3125 15 -3135 25
-18 1066 -14 1088 5 16 12 17 117 17 1319 0 989 3 1308 12 1319 16 20 67 45
77 38 5 -3 504 -5 1108 -5 604 1 1112 1 1128 0 48 -1 65 -10 77 -38 7 -19 11
-430 12 -1327 l2 -1300 23 -11 c35 -18 1039 -17 1067 1 l21 13 -1 3115 c-1
2624 -3 3117 -15 3130 -12 15 -61 17 -530 16 -284 -1 -527 -4 -541 -8 l-25 -7
2 -1234 c3 -1336 6 -1258 -51 -1280 -18 -6 -412 -10 -1175 -10 -1085 0 -1150
1 -1171 18 l-22 18 1 1241 c1 1223 1 1242 -18 1253 -24 12 -1069 14 -1089 2z"/>
<path d="M23308 9669 c-17 -9 -18 -44 -18 -513 0 -386 3 -506 13 -519 11 -16
73 -17 832 -18 737 0 822 -2 837 -16 17 -15 18 -140 18 -2601 0 -1816 3 -2589
10 -2596 16 -16 1085 -17 1106 -1 15 10 16 246 15 2597 -1 2381 1 2587 16
2599 13 12 152 14 762 16 688 3 747 4 759 20 9 12 12 71 12 212 0 108 1 332 2
499 3 291 2 304 -16 318 -17 12 -331 14 -2175 14 -1446 -1 -2162 -4 -2173 -11z"/>
</g>
</svg>
