<?xml version="1.0" standalone="no"?>
<!DOCTYPE svg PUBLIC "-//W3C//DTD SVG 20010904//EN"
 "http://www.w3.org/TR/2001/REC-SVG-20010904/DTD/svg10.dtd">
<svg version="1.0" xmlns="http://www.w3.org/2000/svg"
 width="1024.000000pt" height="1024.000000pt" viewBox="0 0 1024.000000 1024.000000"
 preserveAspectRatio="xMidYMid meet">

<g transform="translate(0.000000,1024.000000) scale(0.100000,-0.100000)"
fill="#000000" stroke="none">
<path d="M2330 6427 c-92 -31 -153 -70 -222 -140 -48 -49 -72 -86 -123 -191
-35 -72 -79 -153 -99 -181 -20 -27 -250 -267 -512 -533 -262 -266 -475 -484
-473 -485 46 -32 72 -41 135 -45 65 -4 79 -1 137 26 35 16 82 45 103 65 l39
34 355 6 c311 5 367 8 455 27 177 38 319 110 443 225 170 157 252 358 252 616
l0 106 74 71 c55 52 99 83 166 115 50 25 87 48 82 51 -5 3 -43 10 -83 16 -131
18 -171 35 -242 99 -118 107 -200 141 -342 141 -56 0 -99 -7 -145 -23z m309
-203 c28 -35 26 -69 -4 -99 -58 -58 -155 1 -125 76 15 36 35 48 77 49 22 0 38
-8 52 -26z"/>
<path d="M1650 4420 l0 -490 100 0 100 0 0 205 0 205 223 -2 222 -3 3 -202 2
-203 100 0 99 0 0 490 -1 490 -99 0 -99 0 0 -200 0 -200 -225 0 -225 0 0 200
0 200 -100 0 -100 0 0 -490z"/>
<path d="M6622 4828 l3 -83 148 0 147 0 0 -407 0 -408 100 0 100 0 0 405 0
405 38 0 c20 1 81 1 135 1 l97 0 0 85 0 84 -385 0 -386 0 3 -82z"/>
<path d="M8740 4420 l0 -490 89 0 89 0 4 228 c3 195 6 232 21 260 50 92 185
95 244 5 16 -24 18 -56 21 -260 l3 -233 96 0 95 0 -4 248 c-5 294 -13 328 -88
402 -98 99 -273 107 -367 18 l-23 -21 0 166 0 167 -90 0 -90 0 0 -490z"/>
<path d="M2873 4641 c-130 -45 -209 -137 -239 -282 -11 -55 -12 -84 -4 -136
22 -133 78 -211 194 -269 67 -33 80 -36 162 -36 104 0 168 20 242 76 195 149
184 462 -21 603 -93 63 -228 81 -334 44z m184 -162 c140 -53 167 -283 42 -366
-40 -27 -110 -40 -153 -29 -38 9 -97 65 -117 111 -73 160 74 343 228 284z"/>
<path d="M3722 4643 c-19 -9 -44 -32 -58 -52 l-24 -36 0 48 0 47 -90 0 -90 0
0 -360 0 -360 90 0 90 0 0 217 c0 200 2 220 21 260 13 26 34 50 52 60 34 17
97 22 139 11 l26 -8 4 83 c2 45 2 88 0 95 -6 18 -120 15 -160 -5z"/>
<path d="M4271 4634 c-29 -15 -58 -35 -64 -45 -19 -31 -28 -22 -22 21 l6 40
-96 0 -95 0 0 -360 0 -360 95 0 95 0 0 229 c0 220 1 229 23 262 60 91 189 87
237 -7 12 -23 16 -78 18 -256 l3 -228 92 0 92 0 -3 252 c-3 286 -9 319 -75
394 -73 82 -206 108 -306 58z"/>
<path d="M5004 4651 c-50 -13 -133 -63 -165 -98 -128 -146 -129 -398 -3 -528
90 -93 236 -133 365 -101 70 18 153 69 187 116 l22 29 -22 15 c-13 8 -44 24
-69 37 l-47 22 -33 -25 c-65 -48 -132 -59 -197 -33 -61 26 -85 54 -106 123
l-7 22 250 0 251 0 0 43 c0 223 -129 375 -325 383 -38 2 -84 0 -101 -5z m166
-174 c34 -22 62 -62 75 -104 l6 -23 -161 0 -161 0 7 23 c26 86 76 125 160 126
27 1 53 -7 74 -22z"/>
<path d="M5795 4645 c-16 -8 -42 -30 -57 -47 l-28 -32 0 42 0 42 -94 0 -94 0
1 -360 2 -360 93 0 92 0 0 218 c0 193 3 222 20 260 31 69 120 98 205 66 14 -6
15 4 13 87 l-3 94 -60 3 c-39 1 -71 -3 -90 -13z"/>
<path d="M6243 4646 c-166 -54 -255 -185 -255 -375 0 -142 73 -261 194 -320
101 -48 249 -46 351 5 268 136 256 545 -21 672 -69 31 -201 40 -269 18z m215
-192 c143 -114 90 -352 -82 -371 -60 -7 -108 11 -150 57 -89 99 -67 268 44
328 62 33 135 27 188 -14z"/>
<path d="M7533 4646 c-143 -47 -233 -173 -241 -337 -12 -238 130 -391 363
-392 81 0 97 3 157 32 44 21 79 46 103 75 19 24 35 45 35 48 0 2 -31 19 -69
38 l-69 33 -31 -26 c-89 -75 -238 -51 -284 46 -34 70 -44 67 228 67 l245 0 0
63 c0 216 -123 355 -320 364 -45 2 -92 -3 -117 -11z m177 -164 c35 -17 80 -81
80 -114 0 -16 -14 -18 -156 -18 l-156 0 6 31 c19 98 132 148 226 101z"/>
<path d="M8290 4651 c-119 -39 -199 -119 -240 -242 -30 -87 -24 -211 13 -292
78 -171 297 -250 480 -173 42 17 137 102 137 122 0 7 -29 28 -65 47 -57 30
-66 33 -77 19 -19 -22 -108 -62 -141 -62 -33 0 -94 24 -120 48 -59 53 -78 173
-43 265 45 118 179 149 273 64 l35 -32 69 34 c38 19 69 40 69 48 0 26 -82 103
-139 130 -45 21 -73 27 -141 29 -47 2 -96 0 -110 -5z"/>
</g>
</svg>
