<?xml version="1.0" encoding="UTF-8"?>
<svg xmlns="http://www.w3.org/2000/svg" xmlns:xlink="http://www.w3.org/1999/xlink" width="113px" height="36px" viewBox="0 0 113 36" version="1.1">
<g id="surface1">
<path style=" stroke:none;fill-rule:nonzero;fill:rgb(0%,0%,0%);fill-opacity:1;" d="M 18.601562 1.117188 C 17.402344 1.519531 16.609375 2.03125 15.710938 2.941406 C 15.085938 3.582031 14.773438 4.066406 14.109375 5.433594 C 13.65625 6.375 13.082031 7.429688 12.820312 7.796875 C 12.5625 8.148438 9.566406 11.277344 6.15625 14.746094 C 2.746094 18.21875 -0.0273438 21.058594 0 21.074219 C 0.597656 21.492188 0.9375 21.609375 1.757812 21.660156 C 2.601562 21.710938 2.785156 21.671875 3.539062 21.320312 C 3.996094 21.113281 4.605469 20.734375 4.878906 20.472656 L 5.386719 20.03125 L 10.007812 19.953125 C 14.058594 19.886719 14.789062 19.847656 15.933594 19.601562 C 18.238281 19.105469 20.085938 18.164062 21.699219 16.664062 C 23.914062 14.617188 24.980469 11.996094 24.980469 8.628906 L 24.980469 7.246094 L 25.945312 6.320312 C 26.660156 5.644531 27.234375 5.238281 28.105469 4.820312 C 28.757812 4.496094 29.238281 4.195312 29.171875 4.15625 C 29.109375 4.117188 28.613281 4.027344 28.09375 3.949219 C 26.386719 3.710938 25.867188 3.492188 24.941406 2.65625 C 23.40625 1.261719 22.339844 0.816406 20.488281 0.816406 C 19.761719 0.816406 19.199219 0.910156 18.601562 1.117188 Z M 22.625 3.765625 C 22.988281 4.222656 22.964844 4.664062 22.574219 5.054688 C 21.816406 5.8125 20.554688 5.042969 20.945312 4.066406 C 21.140625 3.59375 21.402344 3.4375 21.949219 3.425781 C 22.234375 3.425781 22.441406 3.53125 22.625 3.765625 Z M 22.625 3.765625 "/>
<path style=" stroke:none;fill-rule:nonzero;fill:rgb(0%,0%,0%);fill-opacity:1;" d="M 9.75 27.296875 L 9.75 33.6875 L 12.351562 33.6875 L 12.351562 28.339844 L 15.257812 28.363281 L 18.144531 28.402344 L 18.183594 31.039062 L 18.210938 33.6875 L 20.800781 33.6875 L 20.800781 27.296875 L 20.789062 20.902344 L 18.210938 20.902344 L 18.210938 26.121094 L 12.351562 26.121094 L 12.351562 20.902344 L 9.75 20.902344 Z M 9.75 27.296875 "/>
<path style=" stroke:none;fill-rule:nonzero;fill:rgb(0%,0%,0%);fill-opacity:1;" d="M 74.476562 21.972656 L 74.515625 23.054688 L 78.355469 23.054688 L 78.355469 33.6875 L 80.960938 33.6875 L 80.960938 23.121094 L 81.453125 23.121094 C 81.714844 23.109375 82.507812 23.109375 83.210938 23.109375 L 84.476562 23.109375 L 84.476562 20.902344 L 74.4375 20.902344 Z M 74.476562 21.972656 "/>
<path style=" stroke:none;fill-rule:nonzero;fill:rgb(0%,0%,0%);fill-opacity:1;" d="M 102.050781 27.296875 L 102.050781 33.6875 L 104.367188 33.6875 L 104.417969 30.710938 C 104.457031 28.167969 104.496094 27.6875 104.691406 27.320312 C 105.34375 26.121094 107.101562 26.082031 107.871094 27.257812 C 108.078125 27.570312 108.101562 27.988281 108.140625 30.648438 L 108.179688 33.6875 L 110.667969 33.6875 L 110.617188 30.453125 C 110.550781 26.617188 110.445312 26.171875 109.46875 25.207031 C 108.195312 23.917969 105.917969 23.8125 104.691406 24.972656 L 104.394531 25.246094 L 104.394531 20.902344 L 102.050781 20.902344 Z M 102.050781 27.296875 "/>
<path style=" stroke:none;fill-rule:nonzero;fill:rgb(0%,0%,0%);fill-opacity:1;" d="M 25.671875 24.414062 C 23.976562 25 22.949219 26.199219 22.558594 28.089844 C 22.417969 28.808594 22.402344 29.1875 22.507812 29.863281 C 22.792969 31.601562 23.523438 32.617188 25.03125 33.375 C 25.90625 33.804688 26.074219 33.84375 27.140625 33.84375 C 28.496094 33.84375 29.328125 33.582031 30.292969 32.851562 C 32.832031 30.910156 32.6875 26.824219 30.019531 24.988281 C 28.808594 24.164062 27.050781 23.929688 25.671875 24.414062 Z M 28.066406 26.527344 C 29.890625 27.21875 30.242188 30.21875 28.613281 31.300781 C 28.09375 31.652344 27.179688 31.820312 26.621094 31.679688 C 26.125 31.558594 25.359375 30.832031 25.097656 30.230469 C 24.148438 28.144531 26.0625 25.757812 28.066406 26.527344 Z M 28.066406 26.527344 "/>
<path style=" stroke:none;fill-rule:nonzero;fill:rgb(0%,0%,0%);fill-opacity:1;" d="M 36.722656 24.386719 C 36.476562 24.503906 36.152344 24.804688 35.96875 25.066406 L 35.65625 25.535156 L 35.65625 24.296875 L 33.3125 24.296875 L 33.3125 33.6875 L 35.65625 33.6875 L 35.65625 30.855469 C 35.65625 28.246094 35.683594 27.988281 35.929688 27.464844 C 36.097656 27.125 36.371094 26.8125 36.605469 26.683594 C 37.050781 26.460938 37.867188 26.394531 38.414062 26.539062 L 38.753906 26.644531 L 38.804688 25.558594 C 38.832031 24.972656 38.832031 24.414062 38.804688 24.320312 C 38.726562 24.085938 37.246094 24.125 36.722656 24.386719 Z M 36.722656 24.386719 "/>
<path style=" stroke:none;fill-rule:nonzero;fill:rgb(0%,0%,0%);fill-opacity:1;" d="M 43.871094 24.503906 C 43.492188 24.699219 43.117188 24.960938 43.039062 25.089844 C 42.789062 25.496094 42.671875 25.378906 42.75 24.816406 L 42.828125 24.296875 L 40.34375 24.296875 L 40.34375 33.6875 L 42.816406 33.6875 L 42.816406 30.699219 C 42.816406 27.832031 42.828125 27.710938 43.117188 27.28125 C 43.898438 26.09375 45.574219 26.148438 46.199219 27.375 C 46.355469 27.671875 46.410156 28.390625 46.433594 30.710938 L 46.472656 33.6875 L 48.871094 33.6875 L 48.832031 30.398438 C 48.792969 26.667969 48.714844 26.238281 47.855469 25.261719 C 46.902344 24.191406 45.171875 23.851562 43.871094 24.503906 Z M 43.871094 24.503906 "/>
<path style=" stroke:none;fill-rule:nonzero;fill:rgb(0%,0%,0%);fill-opacity:1;" d="M 53.414062 24.28125 C 52.761719 24.453125 51.679688 25.105469 51.265625 25.558594 C 49.597656 27.464844 49.585938 30.75 51.226562 32.449219 C 52.398438 33.660156 54.296875 34.183594 55.976562 33.765625 C 56.890625 33.53125 57.96875 32.863281 58.414062 32.25 L 58.699219 31.875 L 58.414062 31.679688 C 58.242188 31.574219 57.839844 31.363281 57.515625 31.195312 L 56.902344 30.910156 L 56.472656 31.234375 C 55.625 31.859375 54.753906 32.003906 53.90625 31.664062 C 53.113281 31.324219 52.800781 30.960938 52.527344 30.058594 L 52.4375 29.773438 L 58.957031 29.773438 L 58.957031 29.210938 C 58.957031 26.304688 57.28125 24.320312 54.726562 24.21875 C 54.234375 24.191406 53.632812 24.21875 53.414062 24.28125 Z M 55.574219 26.550781 C 56.015625 26.839844 56.382812 27.359375 56.550781 27.910156 L 56.628906 28.207031 L 52.4375 28.207031 L 52.527344 27.910156 C 52.867188 26.785156 53.515625 26.277344 54.609375 26.265625 C 54.960938 26.25 55.300781 26.355469 55.574219 26.550781 Z M 55.574219 26.550781 "/>
<path style=" stroke:none;fill-rule:nonzero;fill:rgb(0%,0%,0%);fill-opacity:1;" d="M 63.710938 24.359375 C 63.503906 24.464844 63.164062 24.75 62.96875 24.972656 L 62.605469 25.390625 L 62.605469 24.296875 L 60.15625 24.296875 L 60.167969 28.992188 L 60.195312 33.6875 L 62.605469 33.6875 L 62.605469 30.84375 C 62.605469 28.324219 62.644531 27.949219 62.863281 27.453125 C 63.269531 26.550781 64.425781 26.171875 65.535156 26.589844 C 65.714844 26.667969 65.726562 26.539062 65.703125 25.457031 L 65.664062 24.230469 L 64.882812 24.191406 C 64.375 24.179688 63.957031 24.230469 63.710938 24.359375 Z M 63.710938 24.359375 "/>
<path style=" stroke:none;fill-rule:nonzero;fill:rgb(0%,0%,0%);fill-opacity:1;" d="M 69.542969 24.347656 C 67.382812 25.050781 66.222656 26.761719 66.222656 29.238281 C 66.222656 31.089844 67.171875 32.644531 68.75 33.414062 C 70.0625 34.039062 71.992188 34.011719 73.316406 33.347656 C 76.808594 31.574219 76.652344 26.238281 73.042969 24.582031 C 72.148438 24.179688 70.429688 24.058594 69.542969 24.347656 Z M 72.34375 26.851562 C 74.203125 28.339844 73.511719 31.441406 71.273438 31.691406 C 70.492188 31.78125 69.867188 31.546875 69.320312 30.949219 C 68.164062 29.65625 68.449219 27.453125 69.894531 26.667969 C 70.703125 26.238281 71.652344 26.316406 72.34375 26.851562 Z M 72.34375 26.851562 "/>
<path style=" stroke:none;fill-rule:nonzero;fill:rgb(0%,0%,0%);fill-opacity:1;" d="M 86.335938 24.347656 C 84.476562 24.960938 83.304688 26.605469 83.199219 28.742188 C 83.042969 31.847656 84.890625 33.84375 87.925781 33.855469 C 88.980469 33.855469 89.1875 33.816406 89.96875 33.4375 C 90.542969 33.164062 90.996094 32.839844 91.308594 32.460938 C 91.558594 32.148438 91.765625 31.875 91.765625 31.835938 C 91.765625 31.808594 91.363281 31.585938 90.867188 31.339844 L 89.96875 30.910156 L 89.566406 31.246094 C 88.40625 32.226562 86.46875 31.914062 85.867188 30.648438 C 85.425781 29.734375 85.296875 29.773438 88.835938 29.773438 L 92.027344 29.773438 L 92.027344 28.953125 C 92.027344 26.132812 90.425781 24.320312 87.859375 24.203125 C 87.273438 24.179688 86.664062 24.242188 86.335938 24.347656 Z M 88.640625 26.488281 C 89.097656 26.707031 89.683594 27.542969 89.683594 27.972656 C 89.683594 28.183594 89.5 28.207031 87.652344 28.207031 L 85.621094 28.207031 L 85.699219 27.804688 C 85.945312 26.527344 87.417969 25.875 88.640625 26.488281 Z M 88.640625 26.488281 "/>
<path style=" stroke:none;fill-rule:nonzero;fill:rgb(0%,0%,0%);fill-opacity:1;" d="M 96.191406 24.28125 C 94.640625 24.789062 93.601562 25.835938 93.066406 27.4375 C 92.675781 28.574219 92.753906 30.191406 93.238281 31.246094 C 94.25 33.476562 97.101562 34.507812 99.484375 33.503906 C 100.03125 33.28125 101.269531 32.171875 101.269531 31.914062 C 101.269531 31.820312 100.890625 31.546875 100.421875 31.300781 C 99.679688 30.910156 99.5625 30.871094 99.421875 31.050781 C 99.171875 31.339844 98.015625 31.859375 97.585938 31.859375 C 97.15625 31.859375 96.359375 31.546875 96.023438 31.234375 C 95.253906 30.542969 95.007812 28.976562 95.460938 27.777344 C 96.046875 26.238281 97.792969 25.835938 99.015625 26.941406 L 99.472656 27.359375 L 100.371094 26.917969 C 100.867188 26.667969 101.269531 26.394531 101.269531 26.289062 C 101.269531 25.953125 100.203125 24.949219 99.460938 24.59375 C 98.875 24.320312 98.507812 24.242188 97.625 24.21875 C 97.011719 24.191406 96.375 24.21875 96.191406 24.28125 Z M 96.191406 24.28125 "/>
</g>
</svg>
